<?xml version="1.0" encoding="utf-8"?>
<!-- Generator: Adobe Illustrator 23.1.0, SVG Export Plug-In . SVG Version: 6.00 Build 0)  -->
<svg version="1.1" id="Слой_1" xmlns="http://www.w3.org/2000/svg" xmlns:xlink="http://www.w3.org/1999/xlink" x="0px" y="0px"
	 viewBox="0 0 1920 1080" style="enable-background:new 0 0 1920 1080;" xml:space="preserve">
<style type="text/css">
	.st0{fill:url(#SVGID_1_);}
	.st1{fill:url(#SVGID_2_);}
	.st2{fill:url(#SVGID_3_);}
	.st3{fill:url(#SVGID_4_);}
	.st4{fill:url(#SVGID_5_);}
	.st5{fill:#00610B;}
	.st6{fill:#8F6D00;}
	.st7{fill:url(#SVGID_6_);}
	.st8{opacity:0.47;fill:url(#SVGID_7_);}
	.st9{opacity:0.47;fill:url(#SVGID_8_);}
	.st10{opacity:0.47;fill:url(#SVGID_9_);}
	.st11{opacity:0.47;fill:url(#SVGID_10_);}
	.st12{fill:url(#SVGID_11_);}
	.st13{fill:url(#SVGID_12_);}
	.st14{fill:url(#SVGID_13_);}
	.st15{fill:url(#SVGID_14_);}
	.st16{fill:url(#SVGID_15_);}
	.st17{fill:url(#SVGID_16_);}
</style>
<linearGradient id="SVGID_1_" gradientUnits="userSpaceOnUse" x1="959.335" y1="1076.3939" x2="960.7435" y2="528.7859">
	<stop  offset="0" style="stop-color:#3E7642"/>
	<stop  offset="0.5006" style="stop-color:#1D5F22"/>
	<stop  offset="1" style="stop-color:#004B06"/>
</linearGradient>
<rect y="555.7" class="st0" width="1920" height="524.3"/>
<linearGradient id="SVGID_2_" gradientUnits="userSpaceOnUse" x1="959.319" y1="542.6393" x2="960.811" y2="-37.4585">
	<stop  offset="0" style="stop-color:#1800AD"/>
	<stop  offset="7.742882e-02" style="stop-color:#17009F"/>
	<stop  offset="0.7168" style="stop-color:#10012D"/>
	<stop  offset="1" style="stop-color:#0D0200"/>
</linearGradient>
<rect class="st1" width="1920" height="555.7"/>
<linearGradient id="SVGID_3_" gradientUnits="userSpaceOnUse" x1="254.006" y1="526.6399" x2="254.666" y2="783.2285" gradientTransform="matrix(1 0 0 -1 0 1080)">
	<stop  offset="0.3155" style="stop-color:#0075AD"/>
	<stop  offset="0.8484" style="stop-color:#FFFFFF"/>
</linearGradient>
<polygon class="st2" points="175.8,295 0,555.7 508,555.7 332.2,417.8 "/>
<linearGradient id="SVGID_4_" gradientUnits="userSpaceOnUse" x1="550.5097" y1="526.7751" x2="551.5678" y2="938.1826" gradientTransform="matrix(1 0 0 -1 0 1080)">
	<stop  offset="0.3795" style="stop-color:#0075AD"/>
	<stop  offset="0.4199" style="stop-color:#0779AE"/>
	<stop  offset="0.4787" style="stop-color:#1A84B2"/>
	<stop  offset="0.5489" style="stop-color:#3A96B8"/>
	<stop  offset="0.6277" style="stop-color:#67B0C0"/>
	<stop  offset="0.7139" style="stop-color:#A0D0CA"/>
	<stop  offset="0.8049" style="stop-color:#E4F7D7"/>
	<stop  offset="0.8219" style="stop-color:#F2FFD9"/>
</linearGradient>
<polygon class="st3" points="150,557 434,139 951,557 "/>
<linearGradient id="SVGID_5_" gradientUnits="userSpaceOnUse" x1="775.1824" y1="529.3301" x2="776.0041" y2="848.8196" gradientTransform="matrix(1 0 0 -1 0 1080)">
	<stop  offset="0.2635" style="stop-color:#0075AD"/>
	<stop  offset="0.8023" style="stop-color:#FFFFFF"/>
</linearGradient>
<polygon class="st4" points="445,553.5 687.6,229 1105.3,553.5 "/>
<g>
	<path class="st5" d="M175.3,630.7c12.7-20.2,25.4-40.5,38.2-60.7c13,20.2,26,40.5,38.9,60.7H175.3z"/>
	<path class="st5" d="M163.2,674.1c16.6-26,33.2-52,49.8-78.1c16.9,26,33.9,52,50.9,78.1H163.2z"/>
	<path class="st5" d="M158,714c18.6-34.7,37.3-69.4,55.9-104.1c19,34.7,38,69.4,57.1,104.1H158z"/>
	<rect x="203.2" y="714" class="st6" width="19.9" height="26"/>
</g>
<g>
	<path class="st5" d="M259.5,570.4c9.6-11.7,19.1-23.3,28.7-35c9.8,11.7,19.5,23.3,29.3,35H259.5z"/>
	<path class="st5" d="M250.4,595.4c12.5-15,25-30,37.5-45c12.8,15,25.5,30,38.3,45H250.4z"/>
	<path class="st5" d="M246.5,618.4c14-20,28.1-40,42.1-60c14.3,20,28.6,40,42.9,60H246.5z"/>
	<rect x="280.5" y="618.4" class="st6" width="15" height="15"/>
</g>
<g>
	<path class="st5" d="M128.5,556.7c9.6-11.7,19.1-23.3,28.7-35c9.8,11.7,19.5,23.3,29.3,35H128.5z"/>
	<path class="st5" d="M119.4,581.7c12.5-15,25-30,37.5-45c12.8,15,25.5,30,38.3,45H119.4z"/>
	<path class="st5" d="M115.5,604.7c14-20,28-40,42.1-60c14.3,20,28.6,40,42.9,60H115.5z"/>
	<rect x="149.5" y="604.7" class="st6" width="15" height="15"/>
</g>
<g>
	<path class="st5" d="M30.1,563c15.9-19.4,31.9-38.8,47.8-58.3c16.3,19.4,32.5,38.9,48.8,58.3H30.1z"/>
	<path class="st5" d="M15,604.6c20.8-25,41.6-50,62.4-74.9c21.2,25,42.5,50,63.7,74.9H15z"/>
	<path class="st5" d="M8.5,642.9c23.4-33.3,46.7-66.6,70.1-99.9c23.8,33.3,47.6,66.6,71.5,99.9H8.5z"/>
	<rect x="65.1" y="642.9" class="st6" width="25" height="25"/>
</g>
<g>
	<path class="st5" d="M486.7,641.7c12.7-20.2,25.4-40.5,38.2-60.7c13,20.2,26,40.5,38.9,60.7H486.7z"/>
	<path class="st5" d="M474.7,685.1c16.6-26,33.2-52,49.8-78.1c17,26,33.9,52,50.8,78.1H474.7z"/>
	<path class="st5" d="M469.4,725c18.6-34.7,37.3-69.4,55.9-104.1c19,34.7,38,69.4,57.1,104.1H469.4z"/>
	<rect x="514.6" y="725" class="st6" width="19.9" height="26"/>
</g>
<g>
	<path class="st5" d="M570.9,581.4c9.6-11.7,19.1-23.3,28.7-35c9.8,11.7,19.5,23.3,29.3,35H570.9z"/>
	<path class="st5" d="M561.9,606.4c12.5-15,25-30,37.5-45c12.8,15,25.5,30,38.3,45H561.9z"/>
	<path class="st5" d="M557.9,629.4c14-20,28-40,42.1-60c14.3,20,28.6,40,42.9,60H557.9z"/>
	<rect x="591.9" y="629.4" class="st6" width="15" height="15"/>
</g>
<g>
	<path class="st5" d="M439.9,567.7c9.6-11.7,19.1-23.3,28.7-35c9.8,11.7,19.5,23.3,29.3,35H439.9z"/>
	<path class="st5" d="M430.9,592.7c12.5-15,25-30,37.5-45c12.8,15,25.5,30,38.3,45H430.9z"/>
	<path class="st5" d="M426.9,615.7c14-20,28-40,42.1-60c14.3,20,28.6,40,42.9,60H426.9z"/>
	<rect x="460.9" y="615.7" class="st6" width="15" height="15"/>
</g>
<g>
	<path class="st5" d="M341.6,574c15.9-19.4,31.9-38.8,47.8-58.3c16.3,19.4,32.5,38.8,48.8,58.3H341.6z"/>
	<path class="st5" d="M326.5,615.6c20.8-25,41.6-50,62.4-74.9c21.2,25,42.5,50,63.7,74.9H326.5z"/>
	<path class="st5" d="M319.9,653.9c23.4-33.3,46.7-66.6,70.1-99.9c23.8,33.3,47.6,66.6,71.5,99.9H319.9z"/>
	<rect x="376.5" y="653.9" class="st6" width="25" height="25"/>
</g>
<g>
	<path class="st5" d="M804.7,638.7c12.7-20.2,25.5-40.5,38.2-60.7c13,20.2,26,40.5,38.9,60.7H804.7z"/>
	<path class="st5" d="M792.7,682.1c16.6-26,33.2-52,49.8-78.1c17,26,33.9,52,50.8,78.1H792.7z"/>
	<path class="st5" d="M787.4,722c18.7-34.7,37.3-69.4,55.9-104.1c19,34.7,38,69.4,57.1,104.1H787.4z"/>
	<rect x="832.6" y="722" class="st6" width="19.9" height="26"/>
</g>
<g>
	<path class="st5" d="M888.9,578.4c9.6-11.7,19.1-23.3,28.7-35c9.8,11.7,19.5,23.3,29.3,35H888.9z"/>
	<path class="st5" d="M879.9,603.4c12.5-15,25-30,37.5-45c12.8,15,25.5,30,38.3,45H879.9z"/>
	<path class="st5" d="M875.9,626.4c14-20,28-40,42.1-60c14.3,20,28.6,40,42.9,60H875.9z"/>
	<rect x="909.9" y="626.4" class="st6" width="15" height="15"/>
</g>
<g>
	<path class="st5" d="M757.9,564.7c9.6-11.7,19.1-23.3,28.7-35c9.8,11.7,19.5,23.3,29.3,35H757.9z"/>
	<path class="st5" d="M748.9,589.7c12.5-15,25-30,37.5-45c12.8,15,25.5,30,38.3,45H748.9z"/>
	<path class="st5" d="M744.9,612.7c14-20,28-40,42.1-60c14.3,20,28.6,40,42.9,60H744.9z"/>
	<rect x="778.9" y="612.7" class="st6" width="15" height="15"/>
</g>
<g>
	<path class="st5" d="M659.6,571c15.9-19.4,31.9-38.8,47.8-58.3c16.3,19.4,32.5,38.8,48.8,58.3H659.6z"/>
	<path class="st5" d="M644.5,612.6c20.8-25,41.6-50,62.4-74.9c21.2,25,42.5,50,63.7,74.9H644.5z"/>
	<path class="st5" d="M637.9,650.9c23.3-33.3,46.7-66.6,70.1-99.9c23.8,33.3,47.6,66.6,71.5,99.9H637.9z"/>
	<rect x="694.5" y="650.9" class="st6" width="25" height="25"/>
</g>
<g>
	<path class="st5" d="M1110.7,651.7c12.7-20.2,25.4-40.5,38.2-60.7c13,20.2,26,40.5,38.9,60.7H1110.7z"/>
	<path class="st5" d="M1098.7,695.1c16.6-26,33.2-52,49.8-78.1c16.9,26,33.9,52,50.8,78.1H1098.7z"/>
	<path class="st5" d="M1093.4,735c18.7-34.7,37.3-69.4,55.9-104.1c19,34.7,38,69.4,57.1,104.1H1093.4z"/>
	<rect x="1138.6" y="735" class="st6" width="19.9" height="26"/>
</g>
<g>
	<path class="st5" d="M1194.9,591.4c9.6-11.7,19.1-23.3,28.7-35c9.8,11.7,19.5,23.3,29.3,35H1194.9z"/>
	<path class="st5" d="M1185.9,616.4c12.5-15,25-30,37.5-45c12.8,15,25.5,30,38.3,45H1185.9z"/>
	<path class="st5" d="M1181.9,639.4c14-20,28.1-40,42.1-60c14.3,20,28.6,40,42.9,60H1181.9z"/>
	<rect x="1215.9" y="639.4" class="st6" width="15" height="15"/>
</g>
<g>
	<path class="st5" d="M1063.9,577.7c9.6-11.7,19.1-23.3,28.7-35c9.8,11.7,19.5,23.3,29.3,35H1063.9z"/>
	<path class="st5" d="M1054.9,602.7c12.5-15,25-30,37.5-45c12.8,15,25.5,30,38.3,45H1054.9z"/>
	<path class="st5" d="M1050.9,625.7c14-20,28.1-40,42.1-60c14.3,20,28.6,40,42.9,60H1050.9z"/>
	<rect x="1084.9" y="625.7" class="st6" width="15" height="15"/>
</g>
<g>
	<path class="st5" d="M965.6,584c15.9-19.4,31.9-38.8,47.8-58.3c16.3,19.4,32.5,38.8,48.8,58.3H965.6z"/>
	<path class="st5" d="M950.5,625.6c20.8-25,41.6-50,62.4-74.9c21.2,25,42.5,50,63.7,74.9H950.5z"/>
	<path class="st5" d="M943.9,663.9c23.3-33.3,46.7-66.6,70.1-99.9c23.8,33.3,47.6,66.6,71.5,99.9H943.9z"/>
	<rect x="1000.5" y="663.9" class="st6" width="25" height="25"/>
</g>
<g>
	<path class="st5" d="M1441.9,649.7c12.7-20.2,25.4-40.5,38.2-60.7c13,20.2,26,40.5,38.9,60.7H1441.9z"/>
	<path class="st5" d="M1429.9,693.1c16.6-26,33.2-52,49.8-78.1c16.9,26,33.9,52,50.8,78.1H1429.9z"/>
	<path class="st5" d="M1424.7,733c18.7-34.7,37.3-69.4,55.9-104.1c19,34.7,38,69.4,57.1,104.1H1424.7z"/>
	<rect x="1469.8" y="733" class="st6" width="19.9" height="26"/>
</g>
<g>
	<path class="st5" d="M1526.1,589.4c9.6-11.7,19.1-23.3,28.7-35c9.8,11.7,19.5,23.3,29.3,35H1526.1z"/>
	<path class="st5" d="M1517.1,614.4c12.5-15,25-30,37.5-45c12.8,15,25.5,30,38.3,45H1517.1z"/>
	<path class="st5" d="M1513.1,637.4c14-20,28.1-40,42.1-60c14.3,20,28.6,40,42.9,60H1513.1z"/>
	<rect x="1547.1" y="637.4" class="st6" width="15" height="15"/>
</g>
<g>
	<path class="st5" d="M1395.1,575.7c9.6-11.7,19.1-23.3,28.7-35c9.8,11.7,19.5,23.3,29.3,35H1395.1z"/>
	<path class="st5" d="M1386.1,600.7c12.5-15,25-30,37.5-45c12.8,15,25.5,30,38.3,45H1386.1z"/>
	<path class="st5" d="M1382.1,623.7c14-20,28.1-40,42.1-60c14.3,20,28.6,40,42.9,60H1382.1z"/>
	<rect x="1416.1" y="623.7" class="st6" width="15" height="15"/>
</g>
<g>
	<path class="st5" d="M1296.8,582c15.9-19.4,31.9-38.8,47.8-58.3c16.3,19.4,32.5,38.8,48.8,58.3H1296.8z"/>
	<path class="st5" d="M1281.7,623.6c20.8-25,41.6-50,62.4-74.9c21.2,25,42.5,50,63.7,74.9H1281.7z"/>
	<path class="st5" d="M1275.1,661.9c23.3-33.3,46.7-66.6,70.1-99.9c23.8,33.3,47.6,66.6,71.5,99.9H1275.1z"/>
	<rect x="1331.7" y="661.9" class="st6" width="25" height="25"/>
</g>
<g>
	<path class="st5" d="M1750.9,664.7c12.7-20.2,25.4-40.5,38.2-60.7c13,20.2,26,40.5,38.9,60.7H1750.9z"/>
	<path class="st5" d="M1738.9,708.1c16.6-26,33.2-52,49.8-78.1c16.9,26,33.9,52,50.8,78.1H1738.9z"/>
	<path class="st5" d="M1733.7,748c18.7-34.7,37.3-69.4,55.9-104.1c19,34.7,38,69.4,57.1,104.1H1733.7z"/>
	<rect x="1778.8" y="748" class="st6" width="19.9" height="26"/>
</g>
<g>
	<path class="st5" d="M1835.1,604.4c9.6-11.7,19.1-23.3,28.7-35c9.8,11.7,19.5,23.3,29.3,35H1835.1z"/>
	<path class="st5" d="M1826.1,629.4c12.5-15,25-30,37.5-45c12.8,15,25.5,30,38.3,45H1826.1z"/>
	<path class="st5" d="M1822.1,652.4c14-20,28.1-40,42.1-60c14.3,20,28.6,40,42.9,60H1822.1z"/>
	<rect x="1856.1" y="652.4" class="st6" width="15" height="15"/>
</g>
<g>
	<path class="st5" d="M1704.1,590.7c9.6-11.7,19.1-23.3,28.7-35c9.8,11.7,19.5,23.3,29.3,35H1704.1z"/>
	<path class="st5" d="M1695.1,615.7c12.5-15,25-30,37.5-45c12.8,15,25.5,30,38.3,45H1695.1z"/>
	<path class="st5" d="M1691.1,638.7c14-20,28.1-40,42.1-60c14.3,20,28.6,40,42.9,60H1691.1z"/>
	<rect x="1725.1" y="638.7" class="st6" width="15" height="15"/>
</g>
<g>
	<path class="st5" d="M1605.8,597c15.9-19.4,31.9-38.8,47.8-58.3c16.3,19.4,32.5,38.8,48.8,58.3H1605.8z"/>
	<path class="st5" d="M1590.7,638.6c20.8-25,41.6-50,62.4-74.9c21.2,25,42.5,50,63.7,74.9H1590.7z"/>
	<path class="st5" d="M1584.1,676.9c23.3-33.3,46.7-66.6,70.1-99.9c23.8,33.3,47.6,66.6,71.5,99.9H1584.1z"/>
	<rect x="1640.7" y="676.9" class="st6" width="25" height="25"/>
</g>
<radialGradient id="SVGID_6_" cx="1541.7593" cy="151.7273" r="71.1989" gradientUnits="userSpaceOnUse">
	<stop  offset="0" style="stop-color:#DEF600"/>
	<stop  offset="0.2244" style="stop-color:#B3C500"/>
	<stop  offset="0.7616" style="stop-color:#505300"/>
	<stop  offset="1" style="stop-color:#282600"/>
</radialGradient>
<circle class="st7" cx="1543.5" cy="150.6" r="62.3"/>
<linearGradient id="SVGID_7_" gradientUnits="userSpaceOnUse" x1="1547.1499" y1="171.8551" x2="1547.2183" y2="145.2621">
	<stop  offset="0" style="stop-color:#827100;stop-opacity:0.49"/>
	<stop  offset="0.3502" style="stop-color:#685E00;stop-opacity:0.6686"/>
	<stop  offset="1" style="stop-color:#3B3E00"/>
</linearGradient>
<ellipse class="st8" cx="1547.2" cy="159.7" rx="13.5" ry="12.9"/>
<linearGradient id="SVGID_8_" gradientUnits="userSpaceOnUse" x1="1572.1572" y1="185.0907" x2="1572.2068" y2="165.8304">
	<stop  offset="0" style="stop-color:#827100;stop-opacity:0.49"/>
	<stop  offset="0.3502" style="stop-color:#685E00;stop-opacity:0.6686"/>
	<stop  offset="1" style="stop-color:#3B3E00"/>
</linearGradient>
<ellipse class="st9" cx="1572.2" cy="176.3" rx="9.8" ry="9.3"/>
<linearGradient id="SVGID_9_" gradientUnits="userSpaceOnUse" x1="1506.4364" y1="115.7716" x2="1506.4701" y2="102.6578">
	<stop  offset="0" style="stop-color:#827100;stop-opacity:0.49"/>
	<stop  offset="0.3502" style="stop-color:#685E00;stop-opacity:0.6686"/>
	<stop  offset="1" style="stop-color:#3B3E00"/>
</linearGradient>
<ellipse class="st10" cx="1506.5" cy="109.8" rx="6.7" ry="6.3"/>
<linearGradient id="SVGID_10_" gradientUnits="userSpaceOnUse" x1="1507.8165" y1="176.6704" x2="1507.8573" y2="160.8338">
	<stop  offset="0" style="stop-color:#827100;stop-opacity:0.49"/>
	<stop  offset="0.3502" style="stop-color:#685E00;stop-opacity:0.6686"/>
	<stop  offset="1" style="stop-color:#3B3E00"/>
</linearGradient>
<ellipse class="st11" cx="1507.8" cy="169.4" rx="8" ry="7.7"/>
<linearGradient id="SVGID_11_" gradientUnits="userSpaceOnUse" x1="1505.877" y1="49.1655" x2="1546.0913" y2="49.2802" gradientTransform="matrix(1.3081 -0.5824 1.1595 2.6043 -641.4677 822.0066)">
	<stop  offset="0" style="stop-color:#FF3E3E"/>
	<stop  offset="0.3275" style="stop-color:#AC2929"/>
	<stop  offset="0.7931" style="stop-color:#3A0D0C"/>
	<stop  offset="1" style="stop-color:#0D0200"/>
</linearGradient>
<path class="st12" d="M1441.7,55.4L1393,77c-3.2,1.4-7,0-8.5-3.3v0c-1.5-3.4,0-7.4,3.4-8.9l48.4-21.5L1441.7,55.4z"/>
<radialGradient id="SVGID_12_" cx="1918.4143" cy="174.1997" r="13.1853" gradientTransform="matrix(0.7766 0 0 0.8166 321.2059 34.9907)" gradientUnits="userSpaceOnUse">
	<stop  offset="0" style="stop-color:#FFFFFF"/>
	<stop  offset="0.36" style="stop-color:#A19FB6"/>
	<stop  offset="0.803" style="stop-color:#332D60"/>
	<stop  offset="1" style="stop-color:#07003E"/>
</radialGradient>
<circle class="st13" cx="1811.1" cy="177.2" r="10.5"/>
<radialGradient id="SVGID_13_" cx="1245.752" cy="17.7752" r="13.1853" gradientTransform="matrix(0.7972 0 0 0.8051 282.0031 36.8379)" gradientUnits="userSpaceOnUse">
	<stop  offset="0" style="stop-color:#0075AD"/>
	<stop  offset="1" style="stop-color:#0D0200"/>
</radialGradient>
<ellipse class="st14" cx="1275.1" cy="51.1" rx="10.8" ry="10.3"/>
<radialGradient id="SVGID_14_" cx="2013.9771" cy="-14.4388" r="13.1853" gradientTransform="matrix(0.7972 0 0 0.8051 282.0031 36.8379)" gradientUnits="userSpaceOnUse">
	<stop  offset="0" style="stop-color:#0075AD"/>
	<stop  offset="1" style="stop-color:#0D0200"/>
</radialGradient>
<ellipse class="st15" cx="1887.6" cy="25.2" rx="10.8" ry="10.3"/>
<radialGradient id="SVGID_15_" cx="-329.5917" cy="-14.4388" r="13.1853" gradientTransform="matrix(0.7972 0 0 0.8051 282.0031 36.8379)" gradientUnits="userSpaceOnUse">
	<stop  offset="0" style="stop-color:#0075AD"/>
	<stop  offset="1" style="stop-color:#0D0200"/>
</radialGradient>
<ellipse class="st16" cx="19.3" cy="25.2" rx="10.8" ry="10.3"/>
<radialGradient id="SVGID_16_" cx="412.942" cy="17.7752" r="13.1853" gradientTransform="matrix(0.7972 0 0 0.8051 282.0031 36.8379)" gradientUnits="userSpaceOnUse">
	<stop  offset="0" style="stop-color:#0075AD"/>
	<stop  offset="1" style="stop-color:#0D0200"/>
</radialGradient>
<ellipse class="st17" cx="611.2" cy="51.1" rx="10.8" ry="10.3"/>
</svg>
