<?xml version="1.0" encoding="utf-8"?>
<!-- Generator: Adobe Illustrator 23.1.0, SVG Export Plug-In . SVG Version: 6.00 Build 0)  -->
<svg version="1.1" id="Слой_1" xmlns="http://www.w3.org/2000/svg" xmlns:xlink="http://www.w3.org/1999/xlink" x="0px" y="0px"
	 viewBox="0 0 1080 1080" style="enable-background:new 0 0 1080 1080;" xml:space="preserve">
<style type="text/css">
	.st0{fill:url(#SVGID_1_);stroke:#ECFEFF;stroke-miterlimit:10;}
</style>
<linearGradient id="SVGID_1_" gradientUnits="userSpaceOnUse" x1="540.6254" y1="1083.9996" x2="539.3587" y2="-9.7149">
	<stop  offset="0" style="stop-color:#0015F9"/>
	<stop  offset="0.1582" style="stop-color:#3010CE"/>
	<stop  offset="0.3715" style="stop-color:#690B9A"/>
	<stop  offset="0.5686" style="stop-color:#970671"/>
	<stop  offset="0.743" style="stop-color:#B80354"/>
	<stop  offset="0.8882" style="stop-color:#CC0142"/>
	<stop  offset="0.9862" style="stop-color:#D3003B"/>
</linearGradient>
<path class="st0" d="M540,4C241.77,4,0,245.77,0,544s241.77,540,540,540s540-241.77,540-540S838.23,4,540,4z M306.54,850.55
	c-1.37,6.92-8.21,12.45-15.05,12.45H183.41c-2.74,0-5.47-1.38-6.84-2.77c-2.74-1.38-2.74-4.15-2.74-6.92l32.83-322.27
	c1.37-12.45,36.94-307.05,337.9-305.67h168.27c2.74,0,5.47,1.38,6.84,2.77c2.74,1.38,2.74,4.15,2.74,6.92l-10.94,109.27
	c-1.37,6.92-8.21,12.45-15.05,12.45H528.16c-166.9,0-187.42,164.59-187.42,171.51L306.54,850.55z M515.85,572.55
	c16.42,0,84.82,0,84.82,0h39.67c2.74,0,5.47,1.38,6.84,2.77c2.74,1.38,2.74,4.15,2.74,6.92l-4.1,38.73
	c-2.74,26.28-27.36,48.41-54.72,48.41H504.9c-49.25,0-119.02-33.19-109.44-124.48c9.57-91.28,86.19-124.48,135.43-124.48h102.6
	c1.37,0,1.37,0,1.37,0h38.3c2.74,0,5.47,1.38,6.84,2.77c2.74,1.38,2.74,4.15,2.74,6.92l-4.1,40.11
	c-2.74,26.28-27.36,48.41-54.72,48.41h-102.6c-24.62,0-25.99,19.36-27.36,29.05C492.59,555.95,499.43,572.55,515.85,572.55z
	 M871.53,553.18c-1.37,12.45-35.57,308.44-336.54,308.44H366.73c-2.74,0-5.47-1.38-6.84-2.77c-2.74-1.38-2.74-4.15-2.74-6.92
	l10.94-109.27c1.37-6.92,8.21-12.45,15.05-12.45h168.27c166.9,0,187.42-164.59,188.79-171.51l34.2-322.27
	c1.37-6.92,8.21-12.45,15.05-12.45h108.07c2.74,0,5.47,1.38,6.84,2.77c1.37,1.38,1.37,4.15,1.37,6.92L871.53,553.18z"/>
</svg>
